# xmcd
#
# Track frame offsets: 
#        151
#        18991
#        36429
#        50363
#        64066
#        85165
#        99141
#        108840
#        121644
#        136565
#        147132
#        162517
#        179065
#        192539
#        207170
#        226093
#
# Disc length: 3181 seconds
#
# Revision: 0
# Processed by: cddbd v1.4PL0 Copyright (c) Steve Scherf et al.
# Submitted via: ExactAudioCopy v0.90b4
#
DISCID=ce0c6b10
DTITLE=Waylon Jennings - Legendary Waylon Jennings Disc 3
DYEAR=2001
DGENRE=Alternative
TTITLE0=I've Always Been Crazy
TTITLE1=The Conversation (Duet with Hank Williams Jr)
TTITLE2=Waltz Me To Heaven
TTITLE3=Come With Me
TTITLE4=I Ain't Living Long Like This
TTITLE5=Storms Never Last (Duet with Jesse Colter)
TTITLE6=Theme From 'The Dukes Of Hazzard' (Good Ol' Boys)
TTITLE7=Shine
TTITLE8=Women Do Know How To Carry On
TTITLE9=Just To Satisfy You (Duet will Willie Nelson)
TTITLE10=Lucille (You Won't Do Your Daddy's Will)
TTITLE11=America
TTITLE12=Never Could Toe The Mark
TTITLE13=The Broken Promise Land
TTITLE14=Whatever Happened To The Blues
TTITLE15=Nowhere Road (Featuring Willie Nelson)
EXTD=
EXTT0=
EXTT1=
EXTT2=
EXTT3=
EXTT4=
EXTT5=
EXTT6=
EXTT7=
EXTT8=
EXTT9=
EXTT10=
EXTT11=
EXTT12=
EXTT13=
EXTT14=
EXTT15=
PLAYORDER=
